# xmcd CD database file
#
# Track frame offsets:
#	150
#	14426
#	27382
#	42462
#	55791
#	69402
#	81989
#	92903
#	107985
#	121371
#	136747
#	152529
#	165573
#	176388
#	188173
#	200548
#	213123
#	225303
#	236309
#	247873
#	259597
#	270124
#	280936
#	293433
#
# Disc length: 4216 seconds
#
# Revision: 0
# Processed by: cddbd v1.4PL0 Copyright (c) Steve Scherf et al.
# Submitted via: CDex 1.51
#
DISCID=38107618
DTITLE=Art Tatum - Goin' Home
DYEAR=1900
DGENRE=Jazz
TTITLE0=Goin' Home
TTITLE1=Blue Skies
TTITLE2=It's The Talk Of The Town
TTITLE3=Dancing In The Dark
TTITLE4=Wrap Your Troubles In Dreams
TTITLE5=Just-A-Sittin' And A-Rockin'
TTITLE6=You're Driving Me Crazy
TTITLE7=In A Sentimental Mood
TTITLE8=She's Funny That Way
TTITLE9=I'll Never Be The Same
TTITLE10=Night And Day
TTITLE11=It's Only A Paper Moon
TTITLE12=Three Little Words
TTITLE13=On The Sunny Side Of The Street
TTITLE14=Why Was I Born
TTITLE15=If I Could Be With You (One Hour Tonight)
TTITLE16=Mean To Me
TTITLE17=I Guess I Have To Change My Plans
TTITLE18=Can't We Be Friends
TTITLE19=What Is This Thing Called Love
TTITLE20=Crazy Rhythm
TTITLE21=Limehouse Blues
TTITLE22=I'm Coming Virginia
TTITLE23=The Man I Love
EXTD=
EXTT0=
EXTT1=
EXTT2=
EXTT3=
EXTT4=
EXTT5=
EXTT6=
EXTT7=
EXTT8=
EXTT9=
EXTT10=
EXTT11=
EXTT12=
EXTT13=
EXTT14=
EXTT15=
EXTT16=
EXTT17=
EXTT18=
EXTT19=
EXTT20=
EXTT21=
EXTT22=
EXTT23=
PLAYORDER=
